<svg xmlns="http://www.w3.org/2000/svg" viewBox="0 0 512 512">
  <rect width="512" height="512" rx="96" fill="#2563eb"/>
  <g transform="translate(256,256)">
    <path d="M-120,-40 L-120,60 Q-120,80 -100,80 L100,80 Q120,80 120,60 L120,-40 Q120,-60 100,-60 L80,-60 L60,-100 Q50,-120 30,-120 L-30,-120 Q-50,-120 -60,-100 L-80,-60 L-100,-60 Q-120,-60 -120,-40 Z" fill="none" stroke="white" stroke-width="16" stroke-linejoin="round"/>
    <circle cx="-70" cy="40" r="22" fill="white"/>
    <circle cx="70" cy="40" r="22" fill="white"/>
    <rect x="-30" y="-30" width="60" height="12" rx="6" fill="white"/>
    <rect x="-30" y="-5" width="60" height="12" rx="6" fill="white"/>
    <path d="M-140,80 L-160,80 M140,80 L160,80" stroke="white" stroke-width="12" stroke-linecap="round"/>
  </g>
</svg>
